<?xml version="1.0" standalone="no"?>
<!DOCTYPE svg PUBLIC "-//W3C//DTD SVG 20010904//EN"
 "http://www.w3.org/TR/2001/REC-SVG-20010904/DTD/svg10.dtd">
<svg version="1.0" xmlns="http://www.w3.org/2000/svg"
 width="1024.000000pt" height="1024.000000pt" viewBox="0 0 1024.000000 1024.000000"
 preserveAspectRatio="xMidYMid meet">

<g transform="translate(0.000000,1024.000000) scale(0.100000,-0.100000)"
fill="#000000" stroke="none">
<path d="M4169 8111 c-136 -27 -255 -149 -289 -293 -5 -24 -10 -158 -10 -298
-1 -208 -3 -259 -15 -274 -21 -28 -21 -274 0 -302 20 -26 20 -127 0 -144 -12
-10 -15 -42 -15 -172 0 -132 3 -160 15 -164 12 -5 15 -33 15 -165 l0 -159 248
0 c271 0 277 -1 307 -60 8 -16 15 -47 15 -69 0 -39 22 -77 198 -350 l42 -64 0
-114 c0 -132 -6 -147 -79 -216 l-51 -48 2 -357 1 -357 12 230 c6 127 13 223
14 215 1 -8 9 0 17 19 8 19 12 41 10 48 -3 7 4 17 14 23 11 6 20 19 20 30 0
10 5 20 10 22 6 2 12 13 13 26 0 12 6 22 11 22 5 0 6 3 3 6 -3 4 2 18 13 32
11 13 17 28 14 33 -3 5 2 9 10 9 9 0 17 7 17 15 1 15 4 27 9 43 4 14 7 27 8
45 1 10 6 15 12 12 5 -3 7 0 4 8 -3 8 1 21 10 29 17 18 38 87 29 101 -3 6 -1
7 5 3 7 -4 12 -1 12 8 0 9 5 16 11 16 5 0 7 5 4 10 -3 6 -1 10 5 10 6 0 9 4 6
9 -3 5 1 12 9 15 8 3 14 11 13 17 -2 6 4 14 12 16 13 4 13 3 0 -6 -10 -7 -11
-11 -3 -11 12 0 39 39 35 52 -1 4 7 10 18 13 11 4 20 13 20 21 0 8 5 14 11 14
6 0 9 7 5 15 -3 8 -2 14 2 14 22 -4 42 2 37 11 -3 6 1 10 9 10 8 0 18 4 21 10
4 6 -1 7 -12 3 -11 -4 -7 4 12 23 22 21 34 27 43 20 11 -8 13 -5 10 10 -2 13
3 20 20 22 12 2 20 8 17 13 -4 5 -1 9 5 9 6 0 22 12 35 26 16 17 25 22 25 13
1 -8 7 -3 15 11 8 16 22 25 37 25 17 0 23 5 22 22 0 17 2 20 12 12 7 -6 19 -7
26 -3 14 9 32 14 64 17 12 2 28 8 36 15 8 6 18 9 21 5 4 -3 7 2 7 12 0 14 3
15 15 5 14 -11 19 -7 16 13 0 4 10 7 24 7 17 0 25 -6 25 -17 1 -10 20 31 45
91 24 59 47 111 51 115 8 7 11 16 -68 -194 -97 -256 -245 -599 -392 -908 -36
-76 -62 -136 -58 -133 4 2 41 72 82 155 46 94 77 146 82 138 6 -9 8 -9 8 1 0
7 5 10 10 7 6 -3 10 -3 10 2 0 12 76 93 88 93 6 0 19 14 29 30 9 17 21 30 25
30 4 0 14 12 22 28 8 15 15 21 16 15 0 -13 60 44 60 56 0 4 23 24 50 44 28 21
50 44 50 52 0 8 4 15 10 15 5 0 19 10 31 23 12 12 19 15 15 7 -4 -8 1 -5 12 8
11 12 26 22 34 22 7 0 26 9 42 19 17 11 34 17 39 14 6 -3 7 -1 3 5 -3 6 3 13
14 17 11 3 20 11 20 16 0 5 11 9 25 9 16 0 25 6 25 15 0 8 5 15 10 15 7 0 7
-7 0 -21 -12 -21 -71 -319 -69 -348 0 -9 18 64 38 161 51 240 56 245 222 223
128 -18 129 -18 129 -3 0 31 85 181 140 247 l62 73 -4 166 c-3 151 -2 168 15
185 17 17 18 37 15 286 -2 187 -7 272 -15 282 -8 10 -13 121 -15 394 -3 360
-4 383 -25 432 -44 110 -115 181 -224 226 l-54 22 -955 1 c-525 1 -971 -1
-991 -5z m1969 -55 c79 -27 142 -83 182 -160 l35 -69 0 -411 1 -411 -6 375
c-5 328 -6 280 -10 -390 l-4 -765 -6 790 c-5 622 -10 797 -20 825 -21 55 -56
105 -96 139 -79 64 -32 62 -1095 59 l-964 -3 -45 -27 c-25 -14 -59 -41 -77
-60 -65 -67 -63 -42 -65 -882 l-3 -761 -3 745 c-1 410 0 764 3 787 3 23 17 58
31 78 29 44 31 54 4 30 -39 -35 -20 -9 22 30 23 22 36 32 29 23 -7 -10 -9 -18
-3 -18 13 0 33 25 26 32 -3 3 0 9 7 14 8 5 10 3 4 -6 -6 -10 -4 -11 11 -5 10
4 41 16 68 25 26 10 42 20 35 22 -8 3 415 6 939 7 840 2 959 0 1000 -13z
m-1598 -130 c0 -40 36 -96 73 -114 21 -10 141 -13 540 -15 476 -1 516 0 541
16 26 17 44 50 63 112 l9 30 159 0 c149 0 163 -2 200 -23 46 -27 71 -58 80
-98 5 -23 2 -20 -13 12 -38 79 -108 104 -287 104 -123 0 -129 -3 -143 -56 -7
-25 -9 -50 -6 -56 4 -6 2 -8 -3 -5 -6 4 -19 -3 -29 -16 -16 -19 -17 -20 -1 -8
9 8 20 12 23 9 2 -3 -7 -13 -22 -23 -15 -9 -23 -11 -19 -4 6 9 4 10 -11 3 -10
-5 -111 -11 -224 -15 l-205 -5 211 0 c161 1 210 -2 207 -11 -3 -8 4 -11 24 -7
l28 4 -24 -14 c-14 -8 -32 -11 -40 -8 -14 5 -14 4 -1 -13 14 -17 14 -18 -7 -7
-19 10 -23 9 -28 -8 -4 -12 -11 -17 -18 -13 -7 4 -6 0 2 -10 7 -9 18 -14 25
-10 6 3 7 2 3 -2 -15 -17 -39 -13 -44 6 -4 15 -8 17 -19 8 -10 -8 -11 -16 -4
-29 7 -13 5 -22 -7 -31 -10 -9 -14 -9 -10 -2 5 8 0 11 -14 10 -15 -1 -19 -7
-16 -23 2 -12 -2 -21 -9 -21 -7 0 -10 10 -8 26 3 18 2 22 -5 12 -5 -7 -13 -11
-17 -9 -13 8 -51 -36 -48 -55 2 -13 -1 -15 -17 -7 -15 8 -17 7 -13 -5 4 -10 2
-13 -8 -10 -8 3 -23 -3 -33 -15 -20 -22 -51 -28 -39 -7 4 7 3 9 -2 4 -9 -8
-10 -12 -13 -39 -1 -9 -4 -10 -9 -2 -11 16 -41 24 -47 13 -4 -5 -3 -9 2 -8 19
3 34 -2 28 -10 -3 -6 -18 -6 -36 -1 -27 8 -32 6 -36 -10 -3 -11 -9 -20 -13
-20 -5 0 -11 -8 -14 -17 -2 -10 -3 -4 -1 14 2 23 -1 30 -10 27 -7 -3 -16 -12
-19 -20 -3 -9 -1 -12 4 -9 6 3 10 -1 10 -9 0 -15 -20 -34 -20 -19 0 4 -13 17
-28 28 -16 11 -22 13 -15 4 10 -12 9 -18 -7 -29 -10 -7 -17 -16 -15 -19 4 -8
-64 -6 -72 3 -12 12 -33 6 -33 -9 0 -8 -5 -15 -11 -15 -5 0 -8 -4 -5 -9 3 -5
-1 -12 -10 -15 -10 -4 -13 -2 -8 7 3 6 -6 -1 -21 -18 -14 -16 -31 -31 -36 -31
-5 -1 -16 -2 -24 -3 -9 -1 -15 -11 -15 -27 0 -14 -4 -23 -10 -19 -5 3 -10 -1
-10 -9 0 -8 -10 -18 -21 -21 -12 -4 -17 -10 -11 -14 6 -4 5 -11 -4 -19 -20
-18 -19 -3 12 174 37 216 37 219 31 214 -8 -8 -143 -765 -249 -1400 -18 -107
-35 -184 -36 -171 -2 13 3 60 12 105 8 44 18 105 21 134 6 45 5 51 -9 46 -13
-5 -14 -9 -5 -20 10 -12 9 -13 -5 -8 -9 3 -16 16 -16 28 0 15 -3 17 -9 8 -4
-7 -17 -14 -29 -15 -12 -1 -21 -6 -21 -12 2 -21 -13 -51 -32 -63 -10 -7 -19
-8 -19 -3 0 6 8 14 17 20 10 5 15 12 12 16 -9 8 -39 -23 -39 -41 0 -8 5 -14
10 -14 6 0 10 -5 10 -11 0 -8 -4 -8 -15 1 -18 15 -36 5 -29 -18 5 -14 4 -14
-4 -3 -10 15 -97 20 -110 7 -3 -3 5 -6 19 -6 48 0 59 -4 91 -39 18 -20 22 -26
8 -14 -42 37 -78 44 -204 42 l-121 -1 -6 308 c-4 170 -8 552 -10 849 -4 610
-9 570 75 620 39 24 48 25 214 25 l172 0 0 -34z m1260 -15 c0 -5 -7 -14 -15
-21 -16 -14 -18 -10 -9 14 6 17 24 22 24 7z m-317 -317 c-7 -3 -9 -13 -6 -22
5 -13 3 -14 -7 -5 -14 13 -5 33 13 32 9 0 9 -2 0 -5z m-1535 -577 c-1 -282 -3
-476 -5 -432 -7 189 -7 953 0 948 4 -2 6 -235 5 -516z m1307 445 c-3 -3 -11 0
-18 7 -9 10 -8 11 6 5 10 -3 15 -9 12 -12z m-230 -91 c-6 -5 -25 10 -25 20 0
5 6 4 14 -3 8 -7 12 -15 11 -17z m-238 -213 c-3 -8 -6 -5 -6 6 -1 11 2 17 5
13 3 -3 4 -12 1 -19z m-207 -902 c0 -3 -4 -8 -10 -11 -5 -3 -10 -1 -10 4 0 6
5 11 10 11 6 0 10 -2 10 -4z m1041 -43 c-12 -20 -14 -14 -5 12 4 9 9 14 11 11
3 -2 0 -13 -6 -23z m592 -215 c3 -87 2 -158 -3 -158 -5 0 -9 73 -9 162 -1 89
0 160 2 157 3 -2 7 -75 10 -161z m-1756 50 c-3 -8 -6 -5 -6 6 -1 11 2 17 5 13
3 -3 4 -12 1 -19z m1556 -215 c-7 -2 -21 -2 -30 0 -10 3 -4 5 12 5 17 0 24 -2
18 -5z m94 -9 c-3 -3 -12 -4 -19 -1 -8 3 -5 6 6 6 11 1 17 -2 13 -5z"/>
<path d="M5178 7773 c12 -2 30 -2 40 0 9 3 -1 5 -23 4 -22 0 -30 -2 -17 -4z"/>
<path d="M4872 7740 c0 -14 2 -19 5 -12 2 6 2 18 0 25 -3 6 -5 1 -5 -13z"/>
<path d="M4862 7685 c0 -16 2 -22 5 -12 2 9 2 23 0 30 -3 6 -5 -1 -5 -18z"/>
<path d="M4852 7625 c0 -16 2 -22 5 -12 2 9 2 23 0 30 -3 6 -5 -1 -5 -18z"/>
<path d="M4602 6350 c0 -14 2 -19 5 -12 2 6 2 18 0 25 -3 6 -5 1 -5 -13z"/>
<path d="M4141 6213 l-1 -43 57 0 c62 0 67 11 6 13 -36 2 -38 4 -36 32 2 20 0
26 -6 16 -7 -11 -10 -10 -14 5 -2 10 -5 0 -6 -23z"/>
<path d="M4265 6180 c-3 -5 -1 -10 4 -10 6 0 11 5 11 10 0 6 -2 10 -4 10 -3 0
-8 -4 -11 -10z"/>
<path d="M3614 7325 c-371 -82 -869 -379 -1174 -701 -232 -245 -376 -511 -441
-814 -32 -150 -33 -423 -2 -561 69 -305 215 -547 468 -769 364 -320 882 -559
1485 -686 165 -34 469 -82 545 -86 40 -1 -41 -11 -202 -24 -51 -4 -87 -11 -94
-20 -6 -8 -19 -14 -27 -14 -13 0 -10 -6 9 -26 23 -23 38 -27 130 -34 57 -5
122 -11 144 -14 114 -15 190 -18 535 -20 344 -2 577 4 640 17 14 3 47 8 73 12
27 3 59 12 71 20 13 8 25 13 28 10 3 -3 5 5 4 17 0 13 -8 23 -16 23 -8 1 -14
5 -13 11 1 5 -15 11 -35 12 -51 3 -72 11 -69 25 1 7 -3 11 -9 10 -6 -1 -53 -4
-105 -7 -92 -5 -91 -5 56 18 524 81 942 195 1400 381 194 79 359 139 495 180
47 14 91 30 99 34 11 7 9 46 -13 232 -30 256 -82 728 -91 839 -9 99 -22 148
-43 159 -22 11 -212 51 -246 51 -18 0 -27 -6 -31 -22 -2 -13 -18 -160 -35
-328 -18 -168 -38 -352 -45 -410 l-14 -105 6 109 c4 87 3 107 -7 101 -8 -5
-19 -1 -28 11 -12 15 -14 16 -9 2 5 -13 2 -15 -11 -11 -9 3 -22 10 -28 15 -7
5 -23 11 -35 13 -31 6 -69 26 -69 37 0 4 -7 8 -15 8 -8 0 -15 5 -15 10 0 6 -8
10 -19 10 -10 0 -24 7 -31 15 -7 8 -19 15 -27 15 -8 0 -11 5 -7 12 4 6 3 8 -4
4 -5 -3 -13 0 -16 6 -3 7 -3 0 0 -17 5 -27 3 -26 -14 10 -79 162 -301 208
-427 89 -20 -19 -39 -27 -57 -25 -15 1 -36 -2 -47 -8 -11 -6 -22 -7 -25 -2 -8
13 -57 1 -49 -13 3 -6 -3 -3 -14 7 -23 20 -38 23 -27 5 6 -10 5 -10 -7 -1 -8
7 -24 10 -35 7 -12 -3 -26 1 -34 10 -8 11 -17 13 -24 7 -13 -11 -48 14 -59 42
-3 9 -13 17 -22 17 -10 0 -15 10 -16 33 0 27 -2 29 -9 12 -16 -37 -10 7 29
228 22 120 46 225 53 234 11 14 11 15 -2 11 -15 -5 -66 -236 -125 -573 -14
-82 -29 -160 -31 -172 -6 -21 -5 -21 33 -8 59 21 146 19 198 -6 87 -41 155
-149 155 -246 0 -25 4 -33 18 -33 9 0 55 -35 102 -77 47 -42 79 -71 73 -63 -7
8 -13 19 -13 24 0 6 24 -13 53 -42 29 -29 56 -52 60 -52 4 0 6 62 5 137 -3
155 1 147 -96 173 -94 24 -149 112 -139 220 11 130 98 210 228 210 131 0 235
-90 254 -220 3 -25 -3 -151 -14 -280 -11 -129 -23 -291 -27 -360 -7 -142 -17
-166 -69 -176 -72 -13 -176 54 -159 103 4 10 -17 -7 -47 -38 -58 -62 -101 -79
-141 -58 -36 18 -77 60 -72 74 3 6 -8 20 -23 30 -45 30 -143 127 -137 136 3 5
1 9 -5 9 -31 0 -12 -26 69 -96 49 -43 88 -80 85 -82 -5 -5 -193 159 -194 168
0 3 21 19 47 35 54 35 105 116 92 150 -6 17 -9 15 -25 -18 -33 -71 -129 -127
-217 -127 -43 0 -146 32 -186 58 -17 11 -10 0 18 -29 25 -26 61 -65 81 -88 27
-32 43 -41 67 -41 17 0 34 -5 38 -12 5 -8 10 -6 15 8 5 13 8 7 8 -23 1 -60
-27 -78 -115 -70 -102 8 -157 49 -229 171 -9 16 -16 15 -80 -12 -170 -73 -448
-146 -690 -183 -171 -27 -549 -36 -746 -20 -179 16 -401 52 -545 91 -478 127
-941 408 -1242 753 -118 135 -136 164 -42 67 45 -47 75 -75 65 -63 -21 27 -17
69 8 67 22 -2 22 -5 -12 58 -16 29 -32 64 -35 78 -4 14 10 -5 31 -43 55 -98
112 -172 198 -257 l75 -74 0 148 0 149 -64 68 c-75 78 -81 100 -74 252 4 90 5
96 52 178 161 278 156 269 154 312 -1 37 -2 38 -5 10 -5 -36 -18 -44 -27 -15
-3 11 -4 10 -3 -5 2 -21 -4 -25 -30 -17 -39 12 -44 15 -38 23 3 5 1 12 -5 16
-5 3 -10 0 -11 -7 0 -7 -4 -4 -9 8 -6 14 -1 44 16 95 27 83 27 121 0 44 -112
-316 -131 -395 -125 -538 3 -68 1 -86 -9 -82 -36 13 -135 35 -150 33 -44 -8
-13 230 55 412 94 255 264 504 521 764 246 248 484 416 757 533 103 44 103 51
-1 28z m-24 -25 c-8 -5 -19 -10 -25 -10 -5 0 -3 5 5 10 8 5 20 10 25 10 6 0 3
-5 -5 -10z m-1430 -1341 c0 -5 -4 -9 -10 -9 -5 0 -10 7 -10 16 0 8 5 12 10 9
6 -3 10 -10 10 -16z m5201 -673 c11 -109 19 -208 17 -219 -2 -12 -12 52 -22
143 -23 195 -30 287 -22 279 4 -3 15 -95 27 -203z m-45 -196 c-20 -268 -23
-290 -24 -225 -1 28 5 140 13 250 8 110 16 214 16 230 l2 30 5 -30 c2 -16 -3
-131 -12 -255z m-5125 163 c13 -16 12 -17 -3 -4 -10 7 -18 15 -18 17 0 8 8 3
21 -13z m3706 -35 c-3 -8 -6 -5 -6 6 -1 11 2 17 5 13 3 -3 4 -12 1 -19z m394
-101 c-10 -9 -11 -8 -5 6 3 10 9 15 12 12 3 -3 0 -11 -7 -18z m1096 -169 c-2
-13 -4 -5 -4 17 -1 22 1 32 4 23 2 -10 2 -28 0 -40z m10 -110 c-3 -7 -5 -2 -5
12 0 14 2 19 5 13 2 -7 2 -19 0 -25z m-110 -105 c-2 -16 -4 -3 -4 27 0 30 2
43 4 28 2 -16 2 -40 0 -55z m120 -30 c-3 -10 -5 -4 -5 12 0 17 2 24 5 18 2 -7
2 -21 0 -30z m-320 -35 c-2 -13 -4 -3 -4 22 0 25 2 35 4 23 2 -13 2 -33 0 -45z
m190 -80 c-2 -18 -4 -4 -4 32 0 36 2 50 4 33 2 -18 2 -48 0 -65z m-200 -5 c-3
-10 -5 -4 -5 12 0 17 2 24 5 18 2 -7 2 -21 0 -30z m-4228 -93 c46 -18 52 -18
40 -4 -7 9 29 -5 80 -30 116 -59 363 -166 497 -217 206 -77 499 -145 802 -186
163 -22 745 -25 927 -5 243 27 556 91 763 157 46 15 86 24 88 22 3 -3 -9 -9
-25 -15 -17 -6 -31 -13 -31 -16 0 -3 6 -3 14 0 7 3 21 -6 30 -20 11 -18 13
-26 5 -26 -7 0 -10 -3 -6 -6 3 -3 31 2 62 11 32 9 59 14 62 11 11 -11 -323
-102 -517 -140 -283 -56 -686 -93 -909 -84 -49 1 -84 0 -78 -4 7 -4 81 -8 165
-8 150 0 152 0 142 -20 -7 -14 -22 -21 -48 -22 -20 -1 44 -5 143 -9 125 -4 80
-5 -150 -3 -415 3 -596 25 -958 115 -295 74 -681 221 -902 345 -96 54 -369
226 -390 246 -5 5 24 -9 65 -31 41 -22 99 -49 129 -61z m4220 16 c-2 -2 -13 8
-23 22 l-19 27 24 -22 c12 -12 21 -24 18 -27z m180 -90 c-23 -21 -23 -21 -6 0
9 11 18 34 18 50 l2 29 4 -29 c3 -21 -2 -35 -18 -50z m298 -49 c4 -7 -19 10
-50 37 -31 27 -57 51 -57 53 0 7 98 -76 107 -90z m-1668 35 c-12 -5 -39 17
-39 30 0 5 11 1 24 -9 13 -10 20 -20 15 -21z m1351 -15 c0 -2 -12 -14 -27 -28
l-28 -24 24 28 c23 25 31 32 31 24z m-1840 -27 c-8 -5 -19 -10 -25 -10 -5 0
-3 5 5 10 8 5 20 10 25 10 6 0 3 -5 -5 -10z m2191 -17 c13 -16 12 -17 -3 -4
-17 13 -22 21 -14 21 2 0 10 -8 17 -17z m-2045 -45 c-14 -4 -7 -7 24 -8 l45
-2 -45 -13 c-41 -12 -43 -13 -15 -15 l30 -2 -27 -7 c-15 -3 -36 -13 -46 -22
-18 -15 -20 -15 -32 4 -11 19 -13 19 -22 4 -5 -9 -14 -17 -20 -17 -7 0 -7 4 1
14 9 11 4 12 -31 5 -55 -10 -73 -11 -64 -1 4 4 11 7 14 8 56 7 138 44 98 44
-26 0 -18 14 17 30 28 13 35 13 63 0 29 -14 30 -15 10 -22z m1644 29 c0 -2
-15 -16 -32 -33 l-33 -29 29 33 c28 30 36 37 36 29z m-1943 -14 c-9 -2 -15 -8
-12 -13 3 -5 0 -12 -6 -16 -8 -4 -9 -3 -5 4 5 8 -1 12 -16 13 -23 1 -23 1 2 9
14 4 32 8 40 8 10 0 9 -2 -3 -5z m2203 -13 c-14 -4 -34 -8 -45 -8 -16 0 -15 2
5 8 14 4 34 8 45 8 16 0 15 -2 -5 -8z m-2340 -21 c-41 -10 -95 -21 -120 -24
-25 -2 0 6 55 19 55 13 109 23 120 24 11 0 -14 -9 -55 -19z m2253 4 c-7 -2
-19 -2 -25 0 -7 3 -2 5 12 5 14 0 19 -2 13 -5z m-3636 -9 c-3 -3 -12 -4 -19
-1 -8 3 -5 6 6 6 11 1 17 -2 13 -5z m3590 0 c-3 -3 -12 -4 -19 -1 -8 3 -5 6 6
6 11 1 17 -2 13 -5z m-3534 -11 c-7 -2 -21 -2 -30 0 -10 3 -4 5 12 5 17 0 24
-2 18 -5z m60 -10 c-7 -2 -19 -2 -25 0 -7 3 -2 5 12 5 14 0 19 -2 13 -5z m60
-10 c-7 -2 -21 -2 -30 0 -10 3 -4 5 12 5 17 0 24 -2 18 -5z m1028 -2 c-10 -6
1 -8 30 -5 96 9 251 5 264 -8 3 -3 -8 -5 -25 -4 -19 1 -34 -3 -37 -11 -3 -7
-9 -13 -15 -13 -5 0 -7 4 -4 8 3 5 -9 6 -26 4 -22 -3 -27 -7 -17 -14 11 -8 11
-9 -1 -5 -8 2 -15 14 -14 26 1 28 -4 27 -16 -4 -7 -18 -14 -23 -26 -18 -12 4
-15 3 -10 -5 4 -7 1 -12 -8 -12 -9 0 -16 4 -16 8 0 5 -7 9 -15 9 -8 0 -12 -4
-9 -8 2 -4 -5 -13 -16 -19 -11 -6 -20 -8 -20 -5 0 3 -9 1 -20 -5 -11 -6 -20
-16 -20 -23 0 -7 -9 -13 -20 -13 -11 0 -20 4 -20 8 0 4 -12 3 -26 -2 -22 -9
-25 -8 -20 5 3 9 2 13 -4 10 -5 -3 -7 -19 -3 -35 3 -20 1 -30 -6 -30 -7 0 -9
5 -5 12 4 7 3 8 -5 4 -20 -13 -61 -17 -61 -6 0 5 -5 10 -11 10 -5 0 -8 -4 -5
-9 4 -5 -3 -7 -14 -4 -11 3 -20 10 -20 16 0 7 -4 7 -12 -1 -9 -9 -15 -7 -25 6
-8 9 -12 11 -8 5 4 -9 -2 -13 -17 -13 -16 0 -19 3 -10 9 10 6 9 10 -7 14 -13
3 -24 -1 -30 -10 -12 -22 -30 -7 -23 20 5 20 4 21 -11 8 -18 -15 -23 -26 -7
-16 16 10 11 -1 -7 -16 -11 -10 -14 -10 -9 -1 4 8 1 12 -9 12 -12 0 -15 -5
-10 -17 5 -15 4 -16 -7 -5 -10 10 -8 17 13 35 14 12 19 18 12 13 -9 -5 -13 -4
-14 5 0 10 -2 11 -6 2 -6 -15 -43 1 -43 19 0 7 5 6 15 -2 12 -10 15 -9 15 4 0
13 4 15 19 6 25 -13 34 -13 26 0 -3 6 1 10 10 10 9 0 14 -4 11 -9 -3 -5 1 -11
9 -14 9 -4 12 -1 8 9 -3 9 1 14 12 14 9 0 14 -4 11 -9 -4 -5 4 -7 16 -3 21 5
22 4 8 -14 -14 -19 -14 -19 7 0 13 10 20 22 18 27 -3 4 7 10 22 12 16 3 -5 3
-46 1 -41 -2 -122 -4 -180 -5 -58 0 -99 -3 -90 -7 9 -4 15 -15 13 -24 -1 -10
5 -22 13 -27 14 -8 14 -10 -3 -19 -10 -5 -23 -11 -29 -12 -5 -1 -8 -7 -7 -13
2 -7 0 -9 -4 -4 -4 4 -16 0 -26 -9 -16 -15 -27 -16 -105 -5 -117 16 -355 62
-350 68 3 2 66 -8 142 -22 75 -15 143 -24 151 -21 8 3 14 1 14 -4 0 -6 12 -10
27 -10 14 0 23 3 19 7 -4 4 -15 8 -24 8 -9 0 -16 6 -14 14 2 9 -3 11 -15 7
-16 -5 -16 -4 1 9 11 8 17 17 15 20 -3 3 -14 -3 -25 -13 -23 -20 -64 -28 -64
-12 0 7 7 10 15 6 8 -3 15 -2 15 3 0 5 14 14 30 21 17 7 29 15 26 17 -2 3 -15
0 -28 -7 -22 -11 -22 -10 -4 4 11 9 26 16 33 16 7 0 13 4 13 9 0 5 -39 12 -87
16 -49 4 -106 11 -128 15 -33 8 -28 8 24 4 34 -3 113 -9 175 -14 201 -17 501
-8 671 20 73 11 113 12 96 1z m-482 -78 c2 -2 -5 -3 -17 -3 -14 0 -22 6 -22
16 0 14 3 15 18 3 9 -7 19 -15 21 -16z m-654 3 c28 -8 41 -14 30 -14 -21 0
-107 25 -90 27 6 0 33 -6 60 -13z m298 6 c2 7 8 10 12 6 11 -10 -33 -43 -60
-43 -13 -1 -22 2 -19 6 2 4 -2 10 -8 13 -7 3 2 4 20 3 26 -3 32 0 27 11 -4 12
-3 12 9 3 11 -9 15 -9 19 1z m350 -49 c-7 -2 -19 -2 -25 0 -7 3 -2 5 12 5 14
0 19 -2 13 -5z m422 -13 c3 -5 1 -10 -4 -10 -6 0 -11 5 -11 10 0 6 2 10 4 10
3 0 8 -4 11 -10z m-475 -46 c0 -2 -18 -4 -40 -4 -22 0 -40 3 -40 8 0 4 18 6
40 4 22 -2 40 -6 40 -8z m160 -8 c14 -2 -12 -4 -57 -5 -46 0 -83 2 -83 7 0 6
81 6 140 -2z m258 -13 c-26 -2 -71 -2 -100 0 -29 2 -8 3 47 3 55 0 79 -1 53
-3z m559 -159 c-3 -3 -12 -4 -19 -1 -8 3 -5 6 6 6 11 1 17 -2 13 -5z"/>
<path d="M4533 3943 c15 -2 39 -2 55 0 15 2 2 4 -28 4 -30 0 -43 -2 -27 -4z"/>
<path d="M4180 4203 c1 -23 16 -28 40 -15 23 13 23 13 3 9 -13 -3 -23 -1 -23
4 0 5 -4 9 -10 9 -5 0 -10 -3 -10 -7z"/>
<path d="M4273 4193 c9 -2 25 -2 35 0 9 3 1 5 -18 5 -19 0 -27 -2 -17 -5z"/>
<path d="M4660 4175 c-14 -8 -20 -14 -14 -15 5 0 19 7 30 15 24 18 16 19 -16
0z"/>
<path d="M4880 4155 c-7 -9 -8 -15 -2 -15 5 0 12 7 16 15 3 8 4 15 2 15 -2 0
-9 -7 -16 -15z"/>
<path d="M4320 4136 c0 -9 30 -14 35 -6 4 6 -3 10 -14 10 -12 0 -21 -2 -21 -4z"/>
<path d="M4260 4090 c0 -5 5 -10 11 -10 5 0 7 5 4 10 -3 6 -8 10 -11 10 -2 0
-4 -4 -4 -10z"/>
<path d="M7050 6889 c19 -7 87 -27 150 -46 373 -113 609 -349 610 -609 0 -89
-16 -160 -55 -241 -46 -98 -85 -153 -174 -248 l-76 -80 69 65 c79 76 142 161
187 251 44 89 59 150 59 250 0 140 -41 236 -153 355 -69 74 -155 139 -239 180
-31 15 -54 32 -51 37 3 6 2 7 -4 4 -14 -9 -90 22 -90 37 0 9 18 8 71 -6 38
-11 74 -22 80 -26 6 -3 18 -7 26 -9 38 -5 100 -36 93 -46 -4 -6 0 -8 10 -4 21
8 86 -18 66 -27 -8 -3 -5 -4 6 -1 23 5 64 -15 63 -30 -1 -5 12 -17 28 -25 16
-8 31 -17 34 -20 3 -3 38 -34 78 -69 138 -121 188 -287 146 -489 -34 -167
-112 -302 -254 -442 -53 -52 -111 -103 -128 -113 -30 -17 -31 -17 -37 5 -9 27
-34 58 -48 58 -5 0 1 -8 13 -18 19 -16 24 -37 41 -197 10 -99 21 -204 25 -233
l5 -52 89 75 c326 277 508 626 487 939 -9 153 -72 283 -196 407 -173 173 -472
315 -744 353 -22 3 -35 1 -32 -5 7 -10 -6 -12 -29 -3 -9 3 -13 10 -10 15 3 5
-12 9 -33 9 -21 0 -56 2 -78 5 l-40 5 35 -11z m681 -206 c13 -17 13 -17 -6 -3
-11 8 -22 16 -24 17 -2 2 0 3 6 3 6 0 17 -8 24 -17z"/>
<path d="M7580 6740 c0 -6 7 -10 15 -10 8 0 15 2 15 4 0 2 -7 6 -15 10 -8 3
-15 1 -15 -4z"/>
<path d="M2620 6308 c0 -3 -7 -22 -15 -42 -8 -20 -13 -36 -10 -36 8 0 36 73
30 78 -3 3 -5 3 -5 0z"/>
<path d="M6747 6177 c-22 -7 -36 -14 -33 -17 3 -3 -25 -4 -62 -2 -67 4 -68 4
-143 -47 -79 -52 -127 -103 -172 -181 -27 -48 -60 -127 -71 -172 -6 -27 -5
-28 31 -28 38 0 38 0 56 61 10 33 32 86 49 116 36 65 129 168 169 189 24 12
89 20 89 11 0 -2 -20 -24 -44 -50 -53 -54 -107 -163 -132 -265 -16 -64 -17
-74 -4 -82 28 -18 59 -11 65 13 3 12 9 44 15 70 6 26 25 78 43 114 34 70 119
173 143 173 25 0 103 -81 129 -134 30 -61 55 -171 55 -243 0 -46 3 -53 19 -53
11 0 26 -3 35 -6 14 -5 16 5 16 72 0 99 -22 190 -62 266 -31 59 -108 138 -134
138 -8 0 -14 5 -14 11 0 16 90 5 130 -16 42 -22 107 -90 132 -139 42 -82 60
-151 65 -253 l6 -101 31 -5 c17 -2 33 -3 36 0 3 3 5 46 4 96 -1 143 -42 256
-125 350 -54 62 -104 93 -176 112 -67 17 -94 18 -146 2z"/>
<path d="M8258 5990 c-19 -338 -232 -704 -558 -961 -92 -72 -88 -54 -65 -254
8 -71 15 -133 15 -137 0 -28 242 244 327 369 224 326 334 714 294 1033 -6 51
-7 48 -13 -50z"/>
<path d="M2767 6062 c-11 -11 -17 -36 -17 -63 0 -35 -12 -65 -57 -144 -143
-254 -143 -255 -143 -364 l0 -97 36 -43 c20 -23 54 -51 76 -62 l40 -21 -6 -60
c-4 -34 -4 -128 0 -209 l7 -148 55 -37 c63 -41 151 -94 157 -94 3 0 6 100 7
223 l3 222 345 0 345 0 0 -265 0 -265 -275 -5 -274 -5 109 -51 c163 -76 346
-139 512 -177 l63 -14 2 391 3 391 238 3 237 2 0 -420 0 -420 120 0 120 0 0
480 c0 427 2 480 16 480 23 0 84 45 105 77 25 37 27 169 3 216 -21 41 -153
249 -167 262 -14 14 -11 9 82 -143 44 -73 81 -134 81 -137 0 -3 -61 -5 -135
-5 -105 0 -135 3 -135 13 0 7 -7 22 -16 33 -15 18 -15 18 -5 -3 6 -12 11 -67
11 -122 0 -93 -2 -102 -26 -131 -52 -61 -128 -78 -189 -40 -60 37 -73 70 -74
190 l-1 55 -140 0 -140 0 0 -84 c0 -75 -3 -88 -26 -118 -43 -57 -110 -78 -166
-52 -13 6 -38 30 -55 53 -31 40 -33 48 -33 122 l0 79 -145 4 -145 3 0 -80 c0
-98 -8 -122 -55 -158 -51 -39 -118 -44 -165 -12 -52 35 -70 79 -70 170 0 71 5
88 60 224 33 81 59 149 57 151 -2 1 -32 -65 -68 -147 l-64 -150 -115 2 -115 2
113 3 c105 3 138 13 92 28 -11 4 -18 11 -15 16 4 5 -1 12 -9 15 -9 3 -16 15
-16 27 0 11 -7 27 -15 36 -48 53 -54 61 -47 61 4 0 2 4 -5 8 -7 4 -14 28 -17
54 -3 35 2 55 20 88 13 23 24 48 24 55 0 8 20 15 53 19 28 3 388 5 799 3 521
-1 749 1 752 9 6 15 -5 67 -17 82 -7 9 -177 12 -787 12 -740 0 -778 -1 -793
-18z m-66 -245 c-10 -9 -11 -8 -5 6 3 10 9 15 12 12 3 -3 0 -11 -7 -18z m746
-314 c-3 -10 -5 -4 -5 12 0 17 2 24 5 18 2 -7 2 -21 0 -30z m561 -30 l-2 -68
-3 62 -4 62 -117 4 -117 3 123 2 122 2 -2 -67z m-238 -78 c0 -7 16 -27 37 -45
33 -30 40 -32 91 -28 47 4 60 10 84 37 16 18 28 25 28 17 0 -19 -43 -52 -87
-67 -46 -15 -99 0 -135 38 -27 29 -49 81 -29 69 6 -4 11 -13 11 -21z m-310
-13 c0 -14 -54 -60 -83 -71 -16 -6 -42 -11 -59 -11 -35 0 -118 36 -118 52 0 5
12 0 26 -11 57 -45 159 -34 200 23 19 25 34 33 34 18z"/>
<path d="M3026 5945 c-9 -26 -7 -32 5 -12 6 10 9 21 6 23 -2 3 -7 -2 -11 -11z"/>
<path d="M3006 5895 c-9 -26 -7 -32 5 -12 6 10 9 21 6 23 -2 3 -7 -2 -11 -11z"/>
<path d="M4400 5880 c6 -11 13 -20 16 -20 2 0 0 9 -6 20 -6 11 -13 20 -16 20
-2 0 0 -9 6 -20z"/>
<path d="M5216 5873 c-6 -14 -5 -15 5 -6 7 7 10 15 7 18 -3 3 -9 -2 -12 -12z"/>
<path d="M3181 5594 c0 -11 3 -14 6 -6 3 7 2 16 -1 19 -3 4 -6 -2 -5 -13z"/>
<path d="M6288 5567 c7 -85 -76 -130 -137 -74 l-24 22 19 -27 c20 -28 61 -48
100 -48 29 0 89 59 75 73 -7 7 -7 14 0 23 11 14 1 42 -23 61 -10 9 -12 3 -10
-30z"/>
<path d="M6963 5477 c2 -68 -52 -114 -114 -97 -31 9 -31 9 -14 -10 21 -23 70
-26 110 -8 51 23 71 100 36 132 -18 17 -19 16 -18 -17z"/>
<path d="M5822 5380 c0 -14 2 -19 5 -12 2 6 2 18 0 25 -3 6 -5 1 -5 -13z"/>
<path d="M5811 5324 c0 -11 3 -14 6 -6 3 7 2 16 -1 19 -3 4 -6 -2 -5 -13z"/>
<path d="M5801 5264 c0 -11 3 -14 6 -6 3 7 2 16 -1 19 -3 4 -6 -2 -5 -13z"/>
<path d="M6634 5095 c-10 -26 2 -126 21 -172 18 -44 43 -62 57 -41 17 28 9
133 -14 178 -24 47 -54 63 -64 35z"/>
<path d="M2980 4900 l0 -200 290 0 290 0 0 200 0 200 -290 0 -290 0 0 -200z"/>
<path d="M3840 4715 l0 -344 33 -5 c74 -13 191 -26 223 -26 l34 0 0 360 0 360
-145 0 -145 0 0 -345z m245 -25 c4 -7 -2 -9 -19 -4 -22 5 -26 3 -26 -15 0 -23
19 -28 38 -9 9 9 12 9 12 0 0 -6 -9 -16 -19 -22 -15 -7 -23 -6 -35 6 -19 19
-20 26 -4 42 15 15 45 16 53 2z"/>
<path d="M6095 4874 c19 -28 25 -51 26 -93 1 -42 3 -50 9 -31 7 24 7 23 12
-10 5 -35 5 -35 6 7 1 23 -3 45 -9 48 -6 4 -8 13 -5 20 3 8 -8 32 -25 54 -36
51 -47 54 -14 5z"/>
<path d="M6540 4846 c0 -3 9 -10 20 -16 11 -6 20 -8 20 -6 0 3 -9 10 -20 16
-11 6 -20 8 -20 6z"/>
<path d="M5656 4776 c-23 -49 -20 -88 8 -115 44 -42 86 -7 86 72 0 54 -15 77
-49 77 -23 0 -32 -7 -45 -34z"/>
<path d="M4980 4760 c-11 -22 -18 -40 -15 -40 2 0 14 18 25 40 11 22 18 40 15
40 -2 0 -14 -18 -25 -40z"/>
<path d="M6113 4594 c-3 -9 -26 -29 -51 -45 -25 -16 -41 -29 -35 -29 17 0 75
43 91 68 8 12 11 22 8 22 -4 0 -9 -7 -13 -16z"/>
<path d="M5985 4570 c-3 -6 1 -7 9 -4 18 7 21 14 7 14 -6 0 -13 -4 -16 -10z"/>
<path d="M6445 4396 c-37 -16 -70 -52 -84 -89 -13 -33 -14 -77 -3 -77 17 0
152 141 152 160 0 6 -26 21 -33 20 -1 -1 -15 -7 -32 -14z"/>
<path d="M6552 4350 c0 -19 2 -27 5 -17 2 9 2 25 0 35 -3 9 -5 1 -5 -18z"/>
<path d="M5880 4360 c-12 -8 -12 -10 5 -9 11 0 29 4 40 9 18 8 18 9 -5 9 -14
0 -32 -4 -40 -9z"/>
<path d="M4763 4353 c9 -2 23 -2 30 0 6 3 -1 5 -18 5 -16 0 -22 -2 -12 -5z"/>
<path d="M6561 4271 c-11 -7 -8 -12 15 -24 17 -8 46 -18 67 -22 33 -6 37 -5
37 13 0 12 -4 23 -9 26 -18 12 -96 17 -110 7z"/>
<path d="M6270 4236 c0 -2 7 -7 16 -10 8 -3 12 -2 9 4 -6 10 -25 14 -25 6z"/>
<path d="M6318 4213 c7 -3 16 -2 19 1 4 3 -2 6 -13 5 -11 0 -14 -3 -6 -6z"/>
</g>
</svg>
